<svg width="160" height="100" xmlns="http://www.w3.org/2000/svg" xmlns:svg="http://www.w3.org/2000/svg" transform="scale(-1, 1)">
	<rect fill="#24292e" height="16.57143" transform="rotate(-1.04479 63.2857 24)" width="5.42857" x="60.57143" y="15.71429"/>
	<ellipse cx="58.85714" cy="50" fill="#24292e" rx="41.71429" ry="25.14286" transform="matrix(1 0 0 1 0 0) rotate(-9.95063 58.8571 50)"/>
	<rect fill="#24292e" height="12.20925" transform="matrix(1 0 0 1 0 0) rotate(-10.1543 113.305 42.8683)" width="70" x="78.30477" y="36.76368"/>
	<rect fill="#24292e" height="26.33333" transform="matrix(1 0 0 1 0 0)" width="8.33333" x="140.66667" y="16"/>
	<ellipse class="spinner" cx="150.66667" cy="21" fill="#6d6d6d" rx="7.33333" ry="17"/>
	<ellipse class="spinner" cx="62.14285" cy="13.71429" fill="#6d6d6d" rx="56.14286" ry="8.28571" transform="matrix(1 0 0 1 0 0) rotate(-0.422296 62.1428 13.7143)"/>
	<rect fill="#24292e" height="17" transform="matrix(1 0 0 1 0 0) rotate(12.3194 45.5 80.5)" width="4.33333" x="43.33333" y="72"/>
	<rect fill="#24292e" height="19.33333" transform="matrix(1 0 0 1 0 0) rotate(-17.6046 74.8158 80.1113)" width="4.93041" x="72.35057" y="70.44467"/>
	<rect fill="#24292e" height="4.66667" transform="matrix(1 0 0 1 0 0)" width="56.66667" x="30.66667" y="86"/>
	<rect fill="#24292e" height="5.55614" transform="matrix(1 0 0 1 0 0) rotate(-33.7046 30.5896 87.0812)" width="4.2" x="28.48956" y="84.30314"/>
	<rect fill="#24292e" height="7.2" transform="rotate(44.0608 88 86.2)" width="4.8" x="85.6" y="82.6"/>
	<ellipse cx="54.2" cy="39.4" fill="#ffffff" rx="7.2" ry="10.4"/>
	<ellipse cx="38" cy="40" fill="#ffffff" rx="7.2" ry="10.4" transform="matrix(1 0 0 1 0 0)"/>
	<ellipse cx="36.6" cy="40.3" fill="#000000" rx="4.4" ry="5.5"/>
	<ellipse cx="52" cy="40.2" fill="#000000" rx="4.4" ry="5.5"/>
	<rect fill="#000000" height="4.8" transform="rotate(-22.5035 53.8566 29.2951)" width="13.67737" x="47.01787" y="26.89514"/>
	<rect fill="#000000" height="4.8" transform="rotate(21.656 37.7 30.4)" width="11.8" x="31.8" y="28"/>
	<rect fill="#000000" height="4.6" width="23.6" x="34.2" y="54.4"/>
</svg>