<svg width="120" height="24" xmlns="http://www.w3.org/2000/svg" xmlns:svg="http://www.w3.org/2000/svg">
	<rect fill="#24292e" height="24" id="svg_3" width="120" x="0" y="0"/>
	<text fill="#bebfc1" font-family="sans-serif" font-size="24" id="svg_1" stroke-width="0" text-anchor="middle" transform="matrix(0.609921 0 0 0.609921 -34.7024 -1.50109)" x="172.28579" xml:space="preserve" y="30.13365">Play Games!</text>
	<path d="m5.34615,11.84615a6.5,6.5 0 1 1 13,0a6.5,6.5 0 0 1 -13,0zm6.5,-8a8,8 0 1 0 0,16a8,8 0 0 0 0,-16zm-1.621,5.227a0.25,0.25 0 0 0 -0.379,0.215l0,5.117a0.25,0.25 0 0 0 0.379,0.214l4.264,-2.559a0.25,0.25 0 0 0 0,-0.428l-4.264,-2.559z" fill="#bebfc1" id="svg_2"/>
</svg>